# xmcd
#
# Track frame offsets:
#	150
#	28619
#	72346
#	98948
#	121740
#	146102
#	166002
#	194632
#	236275
#	268821
#	301774
#
# Disc length: 4610 seconds
#
# Revision: 2
# Processed by: cddbd v1.5.2PL0 Copyright (c) Steve Scherf et al.
# Submitted via: EasyCDDAExtractor 2010.6.0.0
#
DISCID=9412000b
DTITLE=Various Artist - Dance Classics - Pop Edition Vol. 8 cd 2
DYEAR=2012
DGENRE=Pop
TTITLE0=Talk Talk - It's My Life (Extended Mix)
TTITLE1=Exposé - Point Of No Return (Extended Mix)
TTITLE2=Human League - The Lebanon (12 Inch Extended)
TTITLE3=Lisa Lisa and Cult Jam - Head To Toe (Extended Version)
TTITLE4=Men At Work - Down Under (12 Inch)
TTITLE5=Scritti Politti - The Word Girl
TTITLE6=Spandau Ballet - Only When You Leave (12 Inch)
TTITLE7=Daryl Hall and John Oates - Everything Your Heart Desires (54th Street E
TTITLE7=xtended Remix)
TTITLE8=Simple Minds - Sanctify Yourself (Extended Mix)
TTITLE9=Centerfold - Radar Love (12 Inch Version)
TTITLE10=Stars On 45 - Stars On 45 (Original 12 Inch Version)
EXTD=
EXTT0=
EXTT1=
EXTT2=
EXTT3=
EXTT4=
EXTT5=
EXTT6=
EXTT7=
EXTT8=
EXTT9=
EXTT10=
PLAYORDER=
